<svg width="48" height="48" viewBox="0 0 48 48" fill="none" xmlns="http://www.w3.org/2000/svg">
<path fill-rule="evenodd" clip-rule="evenodd" d="M38.4 6.4H43.2C44.473 6.4 45.6939 6.90571 46.5941 7.80589C47.4943 8.70606 48 9.92696 48 11.2V43.2C48 44.473 47.4943 45.6939 46.5941 46.5941C45.6939 47.4943 44.473 48 43.2 48H4.8C3.52696 48 2.30606 47.4943 1.40589 46.5941C0.505713 45.6939 0 44.473 0 43.2L0 11.2C0 9.92696 0.505713 8.70606 1.40589 7.80589C2.30606 6.90571 3.52696 6.4 4.8 6.4H9.6V0H12.8V6.4H35.2V0H38.4V6.4ZM19.2 25.6H9.6V22.4H19.2V25.6ZM38.4 22.4H28.8V25.6H38.4V22.4ZM19.2 35.2H9.6V32H19.2V35.2ZM28.8 35.2H38.4V32H28.8V35.2Z" fill="#545454"/>
</svg>
