<svg width="36" height="40" viewBox="0 0 36 40" fill="none" xmlns="http://www.w3.org/2000/svg">
<path d="M30.9688 18.29H22.375V10.79H19.5625C20.4331 9.62785 20.9008 8.21343 20.8948 6.76136C20.8948 4.60198 19.873 2.573 18.2282 1.46636L17.5304 0.996826L16.8327 1.46636C15.1875 2.57315 14.166 4.60206 14.166 6.76136C14.1602 8.21345 14.6281 9.62784 15.4987 10.79H12.375V18.29H5.03125C3.82991 18.2913 2.67816 18.7692 1.82868 19.6186C0.979201 20.4681 0.501365 21.6199 0.5 22.8212V36.8785C0.500744 37.5414 0.764376 38.1768 1.23306 38.6455C1.70173 39.1142 2.33719 39.3778 3 39.3785H33C33.6628 39.3778 34.2983 39.1142 34.7669 38.6455C35.2356 38.1768 35.4993 37.5414 35.5 36.8785V22.8213C35.4986 21.6199 35.0208 20.4682 34.1713 19.6187C33.3218 18.7692 32.1701 18.2914 30.9688 18.29ZM17.5304 4.18651C18.0765 4.86495 18.3948 5.78542 18.3948 6.76144C18.3948 7.73745 18.0765 8.658 17.5304 9.33636C16.9844 8.658 16.666 7.73745 16.666 6.76136C16.666 5.78526 16.9844 4.86495 17.5304 4.18651ZM14.875 13.29H19.875V18.29H14.875V13.29ZM3 22.8213C3.00062 22.2828 3.21483 21.7665 3.59562 21.3857C3.97642 21.0049 4.49272 20.7906 5.03125 20.79H30.9688C31.5073 20.7906 32.0236 21.0049 32.4044 21.3857C32.7852 21.7665 32.9994 22.2828 33 22.8213V25.2882L31.3125 26.0328C30.9825 26.1781 30.6258 26.253 30.2653 26.253C29.9047 26.253 29.5481 26.1781 29.218 26.0328L26.2812 24.737L23.3438 26.0328C23.0137 26.178 22.6571 26.253 22.2965 26.253C21.9359 26.253 21.5793 26.178 21.2492 26.0328L18.3125 24.7369L15.375 26.0327C15.045 26.1779 14.6883 26.2529 14.3277 26.2529C13.9671 26.2529 13.6105 26.1779 13.2805 26.0327L10.3438 24.737L7.4068 26.0327C7.07676 26.1779 6.72012 26.2529 6.35953 26.2529C5.99895 26.2529 5.6423 26.1779 5.31227 26.0327L3 25.0127V22.8213ZM33 36.8785H3V27.7452L4.30297 28.32C4.95104 28.6052 5.65134 28.7525 6.35938 28.7525C7.06741 28.7525 7.76771 28.6052 8.41578 28.32L10.3438 27.4694L12.2718 28.32C12.9199 28.6052 13.6201 28.7525 14.3282 28.7525C15.0362 28.7525 15.7365 28.6052 16.3845 28.32L18.3125 27.4694L20.2404 28.32C20.8884 28.6052 21.5887 28.7525 22.2967 28.7525C23.0047 28.7525 23.705 28.6052 24.353 28.32L26.2812 27.4694L28.2092 28.3201C28.8573 28.6052 29.5575 28.7525 30.2655 28.7525C30.9735 28.7525 31.6738 28.6052 32.3218 28.3201L33.0009 28.0205L33.0016 36.8785H33Z" fill="#10375C"/>
</svg>
