<svg width="32" height="30" viewBox="0 0 32 30" fill="none" xmlns="http://www.w3.org/2000/svg">
<path d="M5.356 21.788C5.56359 21.9964 5.72267 22.248 5.82188 22.5249C5.9211 22.8018 5.95801 23.0972 5.93 23.39C5.78944 24.7452 5.52295 26.0843 5.134 27.39C7.924 26.744 9.628 25.996 10.402 25.604C10.841 25.3816 11.3466 25.329 11.822 25.456C13.1849 25.8193 14.5895 26.0022 16 26C23.992 26 30 20.386 30 14C30 7.616 23.992 2 16 2C8.008 2 2 7.616 2 14C2 16.936 3.234 19.66 5.356 21.788ZM4.37 29.598C3.89614 29.6919 3.42074 29.7779 2.944 29.856C2.544 29.92 2.24 29.504 2.398 29.132C2.57558 28.7132 2.73835 28.2883 2.886 27.858L2.892 27.838C3.388 26.398 3.792 24.742 3.94 23.2C1.486 20.74 0 17.52 0 14C0 6.268 7.164 0 16 0C24.836 0 32 6.268 32 14C32 21.732 24.836 28 16 28C14.4153 28.0021 12.8372 27.7964 11.306 27.388C10.266 27.914 8.028 28.872 4.37 29.598V29.598Z" fill="white"/>
<path d="M8 9C8 8.73478 8.10536 8.48043 8.29289 8.29289C8.48043 8.10536 8.73478 8 9 8H23C23.2652 8 23.5196 8.10536 23.7071 8.29289C23.8946 8.48043 24 8.73478 24 9C24 9.26522 23.8946 9.51957 23.7071 9.70711C23.5196 9.89464 23.2652 10 23 10H9C8.73478 10 8.48043 9.89464 8.29289 9.70711C8.10536 9.51957 8 9.26522 8 9ZM8 14C8 13.7348 8.10536 13.4804 8.29289 13.2929C8.48043 13.1054 8.73478 13 9 13H23C23.2652 13 23.5196 13.1054 23.7071 13.2929C23.8946 13.4804 24 13.7348 24 14C24 14.2652 23.8946 14.5196 23.7071 14.7071C23.5196 14.8946 23.2652 15 23 15H9C8.73478 15 8.48043 14.8946 8.29289 14.7071C8.10536 14.5196 8 14.2652 8 14ZM8 19C8 18.7348 8.10536 18.4804 8.29289 18.2929C8.48043 18.1054 8.73478 18 9 18H17C17.2652 18 17.5196 18.1054 17.7071 18.2929C17.8946 18.4804 18 18.7348 18 19C18 19.2652 17.8946 19.5196 17.7071 19.7071C17.5196 19.8946 17.2652 20 17 20H9C8.73478 20 8.48043 19.8946 8.29289 19.7071C8.10536 19.5196 8 19.2652 8 19Z" fill="white"/>
</svg>
