<svg width="28" height="37" viewBox="0 0 28 37" fill="none" xmlns="http://www.w3.org/2000/svg">
<path d="M25.5 0.50354H19.875C19.3777 0.50354 18.9008 0.701084 18.5492 1.05271C18.1976 1.40435 18 1.88126 18 2.37854C18 2.87582 18.1976 3.35273 18.5492 3.70437C18.9008 4.056 19.3777 4.25354 19.875 4.25354H20.9688L18.625 6.61292C16.6622 5.07889 14.2412 4.24806 11.75 4.25354C8.92807 4.2519 6.20855 5.31088 4.13081 7.22045C2.05307 9.13002 0.768873 11.7507 0.532894 14.5628C0.296916 17.3749 1.12639 20.1729 2.85683 22.4021C4.58726 24.6312 7.09226 26.1286 9.87502 26.5973V28.6285H6.75002C6.25274 28.6285 5.77583 28.8261 5.4242 29.1777C5.07257 29.5293 4.87502 30.0063 4.87502 30.5035C4.87502 31.0008 5.07257 31.4777 5.4242 31.8294C5.77583 32.181 6.25274 32.3785 6.75002 32.3785H9.87502V34.8785C9.87502 35.3758 10.0726 35.8527 10.4242 36.2044C10.7758 36.556 11.2527 36.7535 11.75 36.7535C12.2473 36.7535 12.7242 36.556 13.0758 36.2044C13.4275 35.8527 13.625 35.3758 13.625 34.8785V32.3785H16.75C17.2473 32.3785 17.7242 32.181 18.0758 31.8294C18.4275 31.4777 18.625 31.0008 18.625 30.5035C18.625 30.0063 18.4275 29.5293 18.0758 29.1777C17.7242 28.8261 17.2473 28.6285 16.75 28.6285H13.625V26.5973C15.4652 26.2857 17.1989 25.5211 18.67 24.3726C20.1411 23.224 21.3033 21.7275 22.0519 20.0178C22.8006 18.3082 23.1121 16.4392 22.9585 14.5792C22.8049 12.7191 22.1909 10.9265 21.1719 9.36292L23.625 6.90979V8.00354C23.625 8.50082 23.8226 8.97773 24.1742 9.32937C24.5258 9.681 25.0027 9.87854 25.5 9.87854C25.9973 9.87854 26.4742 9.681 26.8258 9.32937C27.1775 8.97773 27.375 8.50082 27.375 8.00354V2.37854C27.375 1.88126 27.1775 1.40435 26.8258 1.05271C26.4742 0.701084 25.9973 0.50354 25.5 0.50354ZM11.75 23.0035C10.2667 23.0035 8.81662 22.5637 7.58325 21.7396C6.34988 20.9155 5.38859 19.7441 4.82093 18.3737C4.25327 17.0032 4.10475 15.4952 4.39414 14.0404C4.68352 12.5855 5.39783 11.2491 6.44672 10.2002C7.49562 9.15135 8.83199 8.43704 10.2868 8.14765C11.7417 7.85826 13.2497 8.00679 14.6202 8.57444C15.9906 9.1421 17.1619 10.1034 17.986 11.3368C18.8102 12.5701 19.25 14.0202 19.25 15.5035C19.25 17.4927 18.4598 19.4003 17.0533 20.8068C15.6468 22.2134 13.7391 23.0035 11.75 23.0035Z" fill="#10375C"/>
</svg>
