<svg width="48" height="48" viewBox="0 0 48 48" fill="none" xmlns="http://www.w3.org/2000/svg">
<path d="M22.4976 10.7524V10.8144C22.4984 12.0272 22.306 13.2309 21.9291 14.3728L21.9512 14.2988C21.5848 15.4114 20.9622 16.4042 20.1424 17.183L20.135 17.189C19.358 17.9471 18.3244 18.4092 17.1911 18.4092H17.1025H17.1062C15.611 18.3999 14.1792 17.754 13.1194 16.611C11.9617 15.4594 11.061 14.0373 10.4856 12.4526L10.4616 12.3766C9.90383 10.8789 9.61021 9.28113 9.59593 7.66615V7.59614C9.59593 6.34802 9.79712 5.14991 10.1644 4.0378L10.1423 4.11181C10.5087 2.99915 11.1313 2.00635 11.9511 1.22754L11.9585 1.22154C12.7926 0.408273 13.8822 -0.0282817 15.0039 0.00142216H14.9984C16.494 0.00834965 17.9267 0.654534 18.9851 1.79959C20.1313 2.95114 21.0244 4.3667 21.5987 5.94198L21.6227 6.01799C22.1561 7.41812 22.4717 9.04428 22.4883 10.7464V10.7524H22.4976ZM12.6322 25.8499L12.634 26.0179C12.6362 27.522 12.2073 28.9897 11.4066 30.2183L11.4214 30.1943C11.0562 30.7643 10.5692 31.2301 10.002 31.5519C9.43468 31.8738 8.80396 32.0421 8.16365 32.0424L7.98092 32.0384H7.99015C6.4773 32.0204 5.02318 31.4012 3.90371 30.2983L3.90925 30.3043C2.71834 29.1989 1.75509 27.8346 1.08196 26.2998C0.408828 24.7651 0.040837 23.0942 0.00184573 21.3954V21.3794L0 21.2154C0 19.6453 0.454049 18.1891 1.22741 16.995L1.21264 17.019C1.59254 16.4172 2.10794 15.9305 2.71002 15.6049C3.3121 15.2794 3.98091 15.1259 4.65308 15.1589H4.64385C6.1567 15.1769 7.61082 15.7961 8.73029 16.899L8.72475 16.893C9.91751 18.005 10.8816 19.3759 11.5547 20.917C12.2278 22.4582 12.5948 24.1353 12.6322 25.8399V25.8539V25.8499ZM24.0037 25.0058C26.6984 25.1652 29.2792 26.2362 31.3829 28.0681L31.3571 28.0461C33.9321 30.0279 36.1509 32.5036 37.9038 35.3508L37.9629 35.4528C39.5429 37.7531 40.4663 40.5047 40.6189 43.3675L40.6208 43.4075L40.6245 43.5815C40.6245 44.3896 40.4417 45.1537 40.1187 45.8237L40.1298 45.7977C39.8199 46.4122 39.3359 46.9024 38.7492 47.1959L38.7307 47.2039C38.1936 47.4819 37.5679 47.6999 36.9145 47.8219L36.8702 47.8279C36.1889 47.9444 35.5001 48.0019 34.8104 48H34.672H34.6794C32.7776 47.8635 30.9118 47.3723 29.1643 46.5478L29.2714 46.5938C27.6211 45.814 25.8616 45.34 24.0664 45.1917L24.0092 45.1877C21.9734 45.3517 20.087 45.8478 18.3336 46.6258L18.4573 46.5778C16.6289 47.3736 14.6934 47.8424 12.7263 47.966L12.6746 47.968C9.14804 47.9706 7.38475 46.4511 7.38475 43.4095C7.46468 41.2783 8.03031 39.2016 9.03114 37.3649L8.99976 37.425C10.0796 35.2242 11.4362 33.1966 13.0308 31.4004L13.0234 31.4084C14.582 29.6443 16.3644 28.1296 18.317 26.91L18.4314 26.844C20.099 25.7164 22.0099 25.0813 23.9741 25.0018H23.9963L24.0037 25.0058ZM30.8975 18.4112H30.8126C29.7241 18.4124 28.6739 17.9763 27.8649 17.187L27.8686 17.191C27.0554 16.4238 26.4355 15.445 26.0672 14.3468L26.0524 14.2988C25.6863 13.1801 25.5008 12.0014 25.5043 10.8144V10.7484V10.7524C25.5209 9.04228 25.8365 7.41812 26.3994 5.92998L26.3699 6.01799C26.9418 4.41612 27.8417 2.9758 29.0019 1.80559L29.0093 1.79959C30.0681 0.656486 31.4997 0.011208 32.9942 0.00342235H33.081C34.2142 0.00342235 35.2478 0.467466 36.0286 1.22754L36.0249 1.22354C36.8333 1.98961 37.4572 2.9617 37.8263 4.06781L37.8411 4.11581C38.1936 5.15991 38.3967 6.36602 38.3967 7.62214V7.66215V7.66015C38.3807 9.30914 38.0769 10.94 37.5015 12.4666L37.531 12.3786C36.9586 13.9892 36.0517 15.4354 34.8806 16.605L34.8732 16.613C33.8129 17.7532 32.3819 18.3967 30.8882 18.4052H30.8864L30.8975 18.4112ZM43.3561 15.1629L43.5259 15.1589C44.8752 15.1589 46.0657 15.8909 46.7781 17.009L46.7873 17.023C47.5803 18.2541 48.0037 19.7201 48 21.2214L47.9981 21.3934V21.3854C47.9618 23.0831 47.5964 24.7536 46.9258 26.2884C46.2552 27.8231 45.2943 29.188 44.1055 30.2943L44.0907 30.3083C42.973 31.4071 41.5225 32.024 40.0135 32.0424H40.0098C39.3433 32.0749 38.68 31.9241 38.0817 31.6041C37.4834 31.2842 36.9695 30.8053 36.5878 30.2123L36.5786 30.1983C35.7541 28.9261 35.3295 27.3999 35.3678 25.8459V25.8539C35.4032 24.1502 35.7679 22.4735 36.4384 20.9321C37.1089 19.3906 38.0703 18.0187 39.2605 16.905L39.2752 16.891C40.3917 15.7957 41.8391 15.1803 43.345 15.1609H43.3487L43.3561 15.1629Z" fill="#545454"/>
</svg>
