<svg width="30" height="29" viewBox="0 0 30 29" fill="none" xmlns="http://www.w3.org/2000/svg">
<path d="M10.625 0.87854C9.2875 0.87854 8.125 1.64104 7.3825 2.67604C6.64 3.71104 6.25 5.05354 6.25 6.50354C6.25 7.95354 6.64125 9.29604 7.3825 10.3323C8.125 11.366 9.2875 12.1285 10.625 12.1285C11.9625 12.1285 13.125 11.366 13.8675 10.331C14.61 9.29604 15 7.95354 15 6.50354C15 5.05354 14.6087 3.71104 13.8675 2.67479C13.125 1.64104 11.9625 0.87854 10.625 0.87854ZM15 6.50354C15 7.95354 15.3913 9.29604 16.1325 10.3323C16.875 11.366 18.0375 12.1285 19.375 12.1285C20.7125 12.1285 21.875 11.366 22.6175 10.331C23.3587 9.29604 23.75 7.95354 23.75 6.50354C23.75 5.05354 23.3587 3.71104 22.6175 2.67479C21.875 1.64104 20.7125 0.87854 19.375 0.87854C18.0375 0.87854 16.875 1.64104 16.1325 2.67604C15.3913 3.71104 15 5.05354 15 6.50354ZM10.625 3.37854C11.0162 3.37854 11.445 3.57354 11.8363 4.12104C12.225 4.66604 12.5 5.53729 12.5 6.50354C12.5 7.46979 12.2262 8.33979 11.8363 8.88604C11.445 9.43354 11.0162 9.62854 10.625 9.62854C10.2338 9.62854 9.805 9.43354 9.41375 8.88604C9.025 8.34104 8.75 7.46979 8.75 6.50354C8.75 5.53729 9.02375 4.66729 9.41375 4.12104C9.805 3.57354 10.2338 3.37854 10.625 3.37854ZM19.375 3.37854C19.7663 3.37854 20.195 3.57354 20.5863 4.12104C20.975 4.66604 21.25 5.53729 21.25 6.50354C21.25 7.46979 20.9762 8.33979 20.5863 8.88604C20.195 9.43354 19.765 9.62854 19.375 9.62854C18.9837 9.62854 18.555 9.43354 18.1637 8.88604C17.775 8.34104 17.5 7.46979 17.5 6.50354C17.5 5.53729 17.7738 4.66729 18.1637 4.12104C18.555 3.57354 18.985 3.37854 19.375 3.37854ZM4.375 9.62854C3.0375 9.62854 1.875 10.391 1.1325 11.426C0.39125 12.4598 0 13.8035 0 15.2535C0 16.7035 0.39125 18.046 1.1325 19.0823C1.875 20.116 3.0375 20.8785 4.375 20.8785C5.7125 20.8785 6.875 20.116 7.6175 19.081C8.36 18.046 8.75 16.7035 8.75 15.2535C8.75 13.8035 8.35875 12.461 7.6175 11.4248C6.875 10.391 5.7125 9.62854 4.375 9.62854ZM25.625 9.62854C24.2875 9.62854 23.125 10.391 22.3825 11.426C21.6413 12.461 21.25 13.8035 21.25 15.2535C21.25 16.7035 21.6413 18.046 22.3825 19.0823C23.125 20.116 24.2875 20.8785 25.625 20.8785C26.9625 20.8785 28.125 20.116 28.8675 19.081C29.6087 18.046 30 16.7035 30 15.2535C30 13.8035 29.6087 12.461 28.8675 11.4248C28.125 10.391 26.9625 9.62854 25.625 9.62854ZM4.375 12.1285C4.76625 12.1285 5.195 12.3235 5.58625 12.871C5.975 13.416 6.25 14.2873 6.25 15.2535C6.25 16.2198 5.97625 17.0898 5.58625 17.636C5.195 18.1835 4.76625 18.3785 4.375 18.3785C3.98375 18.3785 3.555 18.1835 3.16375 17.636C2.775 17.091 2.5 16.2198 2.5 15.2535C2.5 14.2873 2.77375 13.4173 3.16375 12.871C3.555 12.3235 3.985 12.1285 4.375 12.1285ZM25.625 12.1285C26.0163 12.1285 26.445 12.3235 26.8363 12.871C27.2262 13.4173 27.5 14.2873 27.5 15.2535C27.5 16.2198 27.2262 17.0898 26.8363 17.636C26.445 18.1835 26.015 18.3785 25.625 18.3785C25.2337 18.3785 24.805 18.1835 24.4137 17.636C24.025 17.091 23.75 16.2198 23.75 15.2535C23.75 14.2873 24.0238 13.4173 24.4137 12.871C24.805 12.3235 25.235 12.1285 25.625 12.1285ZM15 14.6285C13.335 14.6285 12.1725 15.7123 11.6012 16.6598C11.03 17.6073 10.6838 18.3973 10.3512 18.7298C10.1562 18.926 8.95125 19.3798 7.695 20.0198C7.065 20.341 6.43125 20.771 5.89875 21.426C5.314 22.1576 4.99689 23.067 5 24.0035C5 26.406 6.9725 28.3785 9.375 28.3785C10.4587 28.3785 11.5875 28.0323 12.695 27.7148C13.8038 27.3973 15 27.1285 15 27.1285C15 27.1285 16.1962 27.3973 17.305 27.7148C18.4125 28.0323 19.5413 28.3785 20.625 28.3785C23.0275 28.3785 25 26.406 25 24.0035C25 23.0123 24.6338 22.1035 24.1012 21.4648C23.5688 20.8248 22.93 20.4298 22.305 20.0973C21.055 19.4335 19.8237 18.906 19.6488 18.7298C19.35 18.4323 19.0138 17.6173 18.4375 16.6598C17.8625 15.7023 16.675 14.6285 15 14.6285ZM15 17.1285C15.825 17.1285 15.9175 17.3285 16.2887 17.9485C16.66 18.5685 16.9438 19.6185 17.8512 20.5273C18.8813 21.5573 20.185 21.7823 21.1325 22.2848C21.6075 22.5385 21.9725 22.8073 22.1875 23.066C22.4025 23.3248 22.5 23.5635 22.5 24.0035C22.5 25.0535 21.675 25.8785 20.625 25.8785C20.2625 25.8785 19.0963 25.5998 18.0075 25.2923C16.92 24.9848 16.02 24.6285 15 24.6285C13.98 24.6285 13.0813 24.9848 11.9925 25.2923C10.9037 25.5998 9.73625 25.8785 9.375 25.8785C8.325 25.8785 7.5 25.0535 7.5 24.0035C7.5 23.501 7.6025 23.241 7.8125 22.9873C8.0225 22.7335 8.40375 22.4848 8.8675 22.246C9.8 21.771 11.0938 21.581 12.1488 20.5273C13.0662 19.6085 13.345 18.5248 13.7113 17.9098C14.0775 17.2948 14.165 17.1285 15 17.1285Z" fill="#10375C"/>
</svg>
