<svg width="33" height="34" viewBox="0 0 33 34" fill="none" xmlns="http://www.w3.org/2000/svg">
<path d="M22.4039 9.69444L22.3765 9.72185C21.8409 10.2581 21.2239 10.7052 20.5527 11.0432L20.5952 11.0203C19.9415 11.35 19.2276 11.5136 18.5211 11.4956L18.5152 11.4949C17.8367 11.4866 17.1757 11.234 16.6749 10.7331L16.6357 10.694L16.6374 10.6956C15.9807 10.0307 15.6333 9.11249 15.6701 8.13899C15.6674 7.1184 15.8979 6.09189 16.3439 5.13721L16.3669 5.09302C16.7823 4.18463 17.3586 3.34875 18.0661 2.62871L18.097 2.59777C18.6486 2.04618 19.267 1.60559 19.9208 1.27643L19.8783 1.29935C20.532 0.969571 21.2459 0.80597 21.9524 0.82406L21.9583 0.824671C22.6864 0.833883 23.3608 1.12252 23.8434 1.63136L23.841 1.62892C24.4989 2.29295 24.8465 3.21168 24.8082 4.18552C24.8058 5.20097 24.575 6.22128 24.1326 7.17125L24.1096 7.21545C23.7265 8.06996 23.1474 8.92812 22.4024 9.68771L22.3998 9.69036L22.4039 9.69444ZM11.3718 12.0067L11.2983 12.0818C10.6346 12.7475 9.79637 13.2066 8.89954 13.3956L8.91668 13.3916C8.50339 13.4821 8.08231 13.4728 7.68937 13.3643C7.29644 13.2558 6.94332 13.0514 6.66017 12.7686L6.58119 12.6861L6.58527 12.6902C5.92464 12.0136 5.55567 11.0973 5.54835 10.1152L5.54814 10.1203C5.51036 9.10542 5.6876 8.07678 6.06838 7.10104C6.44916 6.12529 7.02497 5.22421 7.75849 4.45623L7.76556 4.44916L7.83723 4.37586C8.53114 3.68195 9.37533 3.23908 10.2448 3.05313L10.2277 3.05721C10.6616 2.95913 11.1045 2.9718 11.5144 3.09402C11.9244 3.21624 12.2878 3.44396 12.5703 3.7556L12.5662 3.75152C13.2268 4.42808 13.5958 5.34438 13.6031 6.32654L13.6033 6.32144C13.639 7.33999 13.4592 8.37192 13.0756 9.35048C12.692 10.329 12.113 11.2325 11.3762 12.0023L11.37 12.0085L11.3718 12.0067ZM16.7703 16.6592C17.8908 17.9206 18.558 19.5344 18.6782 21.2737L18.6765 21.2526C18.9386 23.2665 18.8251 25.3412 18.3415 27.3741L18.3225 27.4453C18.0042 29.1602 17.1962 30.7843 15.9985 32.117L15.9816 32.1355L15.9063 32.214C15.5492 32.5711 15.1308 32.8281 14.6919 32.9814L14.7083 32.9748C14.2998 33.1094 13.8693 33.1122 13.4803 32.9826L13.4686 32.978C13.1083 32.8635 12.7355 32.6833 12.3928 32.4485L12.3705 32.4315C12.018 32.1819 11.6882 31.9029 11.3842 31.5972L11.323 31.5361L11.3263 31.5393C10.5461 30.6386 9.93866 29.5969 9.53072 28.4602L9.5577 28.5279C9.17301 27.4539 8.6049 26.4668 7.87708 25.6079L7.85356 25.5809C6.88135 24.7536 5.82848 24.1392 4.7097 23.7082L4.78557 23.7416C3.62582 23.2852 2.56325 22.6371 1.63933 21.8223L1.61561 21.8004C0.0558901 20.243 -0.0518575 18.7922 1.29236 17.448C2.26957 16.5414 3.4373 15.8736 4.69132 15.5042L4.65093 15.5169C6.10076 15.0215 7.59638 14.725 9.09494 14.6359L9.08814 14.6362C10.5566 14.5453 12.0137 14.6637 13.4156 14.9876L13.4954 15.009C14.7307 15.2476 15.8559 15.8114 16.7591 16.6444L16.7688 16.6542L16.7703 16.6592ZM22.7314 16.7914L22.6939 16.7539C22.2123 16.2734 21.9409 15.6165 21.9322 14.9102L21.9321 14.9136C21.9118 14.2151 22.0704 13.5086 22.393 12.8605L22.4076 12.8328C22.7402 12.1765 23.1792 11.5737 23.7053 11.0506L23.7344 11.0215L23.7327 11.0232C24.4958 10.2748 25.3531 9.69648 26.2595 9.2876L26.2076 9.31344C27.1682 8.85825 28.2025 8.61943 29.2324 8.615L29.2383 8.61561C30.2114 8.57835 31.1293 8.92585 31.7932 9.58291L31.8316 9.62125C32.3324 10.1221 32.5841 10.784 32.5932 11.4649L32.5934 11.4615C32.6121 12.1574 32.4582 12.8627 32.1325 13.5146L32.1178 13.5424C31.8122 14.1596 31.3689 14.7824 30.8138 15.3375L30.7961 15.3552L30.797 15.3543C30.0611 16.076 29.2062 16.6625 28.2772 17.0829L28.3291 17.057C27.3644 17.5159 26.3244 17.7542 25.2899 17.7535L25.2831 17.7538C24.3107 17.7891 23.3939 17.4411 22.73 16.7847L22.7292 16.7839L22.7314 16.7914ZM29.673 20.8619L29.7498 20.9351C30.3461 21.5314 30.5487 22.3811 30.3694 23.1901L30.3673 23.2003C30.1737 24.0948 29.7129 24.9299 29.0478 25.5917L28.9709 25.6669L28.9745 25.6634C28.2081 26.3976 27.3084 26.9744 26.3338 27.3563C25.3591 27.7382 24.3313 27.9167 23.317 27.8802L23.3042 27.8799C22.3247 27.8715 21.411 27.5031 20.736 26.8444L20.7343 26.8428C20.4254 26.5626 20.1989 26.2028 20.0759 25.797C19.9529 25.3911 19.9374 24.9524 20.0308 24.5216L20.033 24.5114C20.2308 23.5847 20.7176 22.7227 21.4214 22.0528L21.4178 22.0563C22.1864 21.319 23.0885 20.7392 24.0661 20.3543C25.0436 19.9694 26.0748 19.788 27.093 19.8217L27.1057 19.8221C28.0832 19.8314 28.9948 20.1992 29.669 20.8561L29.6706 20.8577L29.673 20.8619Z" fill="black"/>
</svg>
