<svg width="32" height="32" viewBox="0 0 32 32" fill="none" xmlns="http://www.w3.org/2000/svg">
<path d="M31 15.6952C31 23.7931 24.3025 30.3905 16 30.3905C7.69751 30.3905 1 23.7931 1 15.6952C1 7.59732 7.69751 1 16 1C24.3025 1 31 7.59732 31 15.6952Z" fill="black" stroke="white" stroke-width="2"/>
<path d="M23.4042 11.2822L20.6642 8.54224C20.3066 8.20634 19.838 8.0136 19.3475 8.00069C18.8571 7.98779 18.379 8.15561 18.0042 8.47224L9.0042 17.4722C8.68097 17.7982 8.47971 18.2254 8.4342 18.6822L8.0042 22.8522C7.99073 22.9987 8.00974 23.1463 8.05986 23.2846C8.10999 23.4229 8.19001 23.5484 8.2942 23.6522C8.38764 23.7449 8.49846 23.8182 8.6203 23.868C8.74213 23.9178 8.8726 23.943 9.0042 23.9422H9.0942L13.2642 23.5622C13.721 23.5167 14.1482 23.3155 14.4742 22.9922L23.4742 13.9922C23.8235 13.6232 24.0123 13.1307 23.9992 12.6228C23.9861 12.1148 23.7721 11.6327 23.4042 11.2822V11.2822ZM13.0842 21.5622L10.0842 21.8422L10.3542 18.8422L16.0042 13.2622L18.7042 15.9622L13.0842 21.5622ZM20.0042 14.6222L17.3242 11.9422L19.2742 9.94224L22.0042 12.6722L20.0042 14.6222Z" fill="white"/>
</svg>
