<svg width="20" height="20" viewBox="0 0 20 20" fill="none" xmlns="http://www.w3.org/2000/svg">
<path d="M19.2553 4.1028L15.8303 0.677801C15.3832 0.257921 14.7975 0.0169994 14.1844 0.000865947C13.5713 -0.0152675 12.9737 0.194513 12.5053 0.590301L1.25525 11.8403C0.851211 12.2478 0.599634 12.7818 0.542753 13.3528L0.00525369 18.5653C-0.0115851 18.7484 0.0121716 18.9329 0.0748302 19.1058C0.137489 19.2786 0.237506 19.4355 0.367754 19.5653C0.484554 19.6812 0.623074 19.7728 0.775371 19.835C0.927668 19.8972 1.09075 19.9288 1.25525 19.9278H1.36775L6.58025 19.4528C7.15125 19.3959 7.6853 19.1443 8.09275 18.7403L19.3428 7.4903C19.7794 7.02901 20.0154 6.41344 19.999 5.77847C19.9826 5.14351 19.7151 4.54094 19.2553 4.1028ZM6.35525 16.9528L2.60525 17.3028L2.94275 13.5528L10.0053 6.5778L13.3803 9.9528L6.35525 16.9528ZM15.0053 8.2778L11.6553 4.9278L14.0928 2.4278L17.5053 5.8403L15.0053 8.2778Z" fill="black"/>
</svg>
