<svg width="14" height="24" viewBox="0 0 14 24" fill="none" xmlns="http://www.w3.org/2000/svg">
<path d="M0.137495 6.465C0.134072 6.54573 0.147201 6.62632 0.176073 6.70179C0.204945 6.77726 0.24895 6.84603 0.305383 6.90387C0.361816 6.96171 0.429483 7.00739 0.504224 7.03811C0.578965 7.06883 0.659199 7.08394 0.739994 7.0825H2.80249C3.14749 7.0825 3.42249 6.8 3.46749 6.4575C3.69249 4.8175 4.81749 3.6225 6.82249 3.6225C8.53749 3.6225 10.1075 4.48 10.1075 6.5425C10.1075 8.13 9.17249 8.86 7.69499 9.97C6.01249 11.1925 4.67999 12.62 4.77499 14.9375L4.78249 15.48C4.78512 15.644 4.85212 15.8004 4.96905 15.9155C5.08598 16.0305 5.24345 16.095 5.40749 16.095H7.43499C7.60075 16.095 7.75973 16.0292 7.87694 15.9119C7.99415 15.7947 8.05999 15.6358 8.05999 15.47V15.2075C8.05999 13.4125 8.74249 12.89 10.585 11.4925C12.1075 10.335 13.695 9.05 13.695 6.3525C13.695 2.575 10.505 0.75 7.01249 0.75C3.84499 0.75 0.374995 2.225 0.137495 6.465ZM4.02999 20.8725C4.02999 22.205 5.09249 23.19 6.55499 23.19C8.07749 23.19 9.125 22.205 9.125 20.8725C9.125 19.4925 8.07499 18.5225 6.55249 18.5225C5.09249 18.5225 4.02999 19.4925 4.02999 20.8725Z" fill="black"/>
</svg>
