<svg width="28" height="28" viewBox="0 0 28 28" fill="none" xmlns="http://www.w3.org/2000/svg">
<path d="M22.872 21.46L26.778 25.364C26.9602 25.5526 27.061 25.8052 27.0587 26.0674C27.0564 26.3296 26.9512 26.5804 26.7658 26.7658C26.5804 26.9512 26.3296 27.0564 26.0674 27.0587C25.8052 27.0609 25.5526 26.9601 25.364 26.778L21.458 22.872C18.9055 25.0589 15.6052 26.1721 12.2496 25.9782C8.89405 25.7842 5.74401 24.2981 3.46051 21.8316C1.17701 19.3652 -0.0624305 16.1102 0.00225794 12.7496C0.0669464 9.38905 1.43074 6.18415 3.80746 3.80743C6.18418 1.43071 9.38908 0.0669159 12.7497 0.00222742C16.1102 -0.062461 19.3652 1.17698 21.8317 3.46048C24.2981 5.74397 25.7842 8.89402 25.9782 12.2496C26.1722 15.6052 25.0589 18.9055 22.872 21.458V21.46ZM13 24C15.9174 24 18.7153 22.8411 20.7782 20.7782C22.8411 18.7153 24 15.9174 24 13C24 10.0826 22.8411 7.2847 20.7782 5.2218C18.7153 3.1589 15.9174 1.99998 13 1.99998C10.0826 1.99998 7.28474 3.1589 5.22184 5.2218C3.15894 7.2847 2.00001 10.0826 2.00001 13C2.00001 15.9174 3.15894 18.7153 5.22184 20.7782C7.28474 22.8411 10.0826 24 13 24Z" fill="white"/>
</svg>
