<svg width="40" height="40" viewBox="0 0 40 40" fill="none" xmlns="http://www.w3.org/2000/svg">
<path d="M15 34.5832H10C9.42207 34.6078 8.84496 34.5182 8.30169 34.3195C7.75843 34.1208 7.25967 33.817 6.83397 33.4253C6.40826 33.0337 6.06396 32.5619 5.82076 32.0371C5.57757 31.5122 5.44025 30.9445 5.41667 30.3666V9.63324C5.44025 9.05526 5.57757 8.48761 5.82076 7.96275C6.06396 7.4379 6.40826 6.96615 6.83397 6.5745C7.25967 6.18285 7.75843 5.87899 8.30169 5.6803C8.84496 5.48161 9.42207 5.39199 10 5.41657H15C15.3315 5.41657 15.6495 5.54827 15.8839 5.78269C16.1183 6.01711 16.25 6.33505 16.25 6.66657C16.25 6.99809 16.1183 7.31604 15.8839 7.55046C15.6495 7.78488 15.3315 7.91657 15 7.91657H10C9.50513 7.87354 9.01267 8.02264 8.62478 8.33296C8.23689 8.64327 7.98332 9.09099 7.91667 9.58324V30.3666C7.98332 30.8588 8.23689 31.3065 8.62478 31.6169C9.01267 31.9272 9.50513 32.0763 10 32.0332H15C15.3315 32.0332 15.6495 32.1649 15.8839 32.3994C16.1183 32.6338 16.25 32.9517 16.25 33.2832C16.25 33.6148 16.1183 33.9327 15.8839 34.1671C15.6495 34.4015 15.3315 34.5332 15 34.5332V34.5832ZM26.6667 27.9166C26.5024 27.9173 26.3397 27.8853 26.188 27.8223C26.0363 27.7594 25.8987 27.6668 25.7833 27.5499C25.5493 27.3155 25.4178 26.9978 25.4178 26.6666C25.4178 26.3353 25.5493 26.0176 25.7833 25.7832L31.5667 19.9999L25.7833 14.2166C25.6605 14.1021 25.562 13.9641 25.4937 13.8108C25.4254 13.6575 25.3886 13.4919 25.3857 13.3241C25.3827 13.1563 25.4136 12.9896 25.4765 12.8339C25.5393 12.6783 25.6329 12.5369 25.7516 12.4182C25.8703 12.2995 26.0117 12.2059 26.1673 12.143C26.323 12.0802 26.4897 12.0493 26.6575 12.0523C26.8254 12.0552 26.9909 12.092 27.1442 12.1603C27.2976 12.2286 27.4356 12.3271 27.55 12.4499L34.2167 19.1166C34.4508 19.3509 34.5822 19.6687 34.5822 19.9999C34.5822 20.3312 34.4508 20.6489 34.2167 20.8832L27.55 27.5499C27.4346 27.6668 27.297 27.7594 27.1453 27.8223C26.9936 27.8853 26.8309 27.9173 26.6667 27.9166Z" fill="#FF0000"/>
<path d="M33.3333 21.25H15C14.6685 21.25 14.3505 21.1183 14.1161 20.8839C13.8817 20.6495 13.75 20.3315 13.75 20C13.75 19.6685 13.8817 19.3505 14.1161 19.1161C14.3505 18.8817 14.6685 18.75 15 18.75H33.3333C33.6649 18.75 33.9828 18.8817 34.2172 19.1161C34.4516 19.3505 34.5833 19.6685 34.5833 20C34.5833 20.3315 34.4516 20.6495 34.2172 20.8839C33.9828 21.1183 33.6649 21.25 33.3333 21.25Z" fill="#FF0000"/>
</svg>
