<svg width="30" height="32" viewBox="0 0 30 32" fill="none" xmlns="http://www.w3.org/2000/svg">
<path d="M10.6667 12.6667V24.6667C10.6667 24.8611 10.6042 25.0208 10.4792 25.1458C10.3542 25.2708 10.1944 25.3333 10 25.3333H8.66667C8.47222 25.3333 8.3125 25.2708 8.1875 25.1458C8.0625 25.0208 8 24.8611 8 24.6667V12.6667C8 12.4722 8.0625 12.3125 8.1875 12.1875C8.3125 12.0625 8.47222 12 8.66667 12H10C10.1944 12 10.3542 12.0625 10.4792 12.1875C10.6042 12.3125 10.6667 12.4722 10.6667 12.6667ZM16 12.6667V24.6667C16 24.8611 15.9375 25.0208 15.8125 25.1458C15.6875 25.2708 15.5278 25.3333 15.3333 25.3333H14C13.8056 25.3333 13.6458 25.2708 13.5208 25.1458C13.3958 25.0208 13.3333 24.8611 13.3333 24.6667V12.6667C13.3333 12.4722 13.3958 12.3125 13.5208 12.1875C13.6458 12.0625 13.8056 12 14 12H15.3333C15.5278 12 15.6875 12.0625 15.8125 12.1875C15.9375 12.3125 16 12.4722 16 12.6667ZM21.3333 12.6667V24.6667C21.3333 24.8611 21.2708 25.0208 21.1458 25.1458C21.0208 25.2708 20.8611 25.3333 20.6667 25.3333H19.3333C19.1389 25.3333 18.9792 25.2708 18.8542 25.1458C18.7292 25.0208 18.6667 24.8611 18.6667 24.6667V12.6667C18.6667 12.4722 18.7292 12.3125 18.8542 12.1875C18.9792 12.0625 19.1389 12 19.3333 12H20.6667C20.8611 12 21.0208 12.0625 21.1458 12.1875C21.2708 12.3125 21.3333 12.4722 21.3333 12.6667ZM24 27.75V8H5.33333V27.75C5.33333 28.0556 5.38194 28.3368 5.47917 28.5938C5.57639 28.8507 5.67708 29.0382 5.78125 29.1562C5.88542 29.2743 5.95833 29.3333 6 29.3333H23.3333C23.375 29.3333 23.4479 29.2743 23.5521 29.1562C23.6562 29.0382 23.7569 28.8507 23.8542 28.5938C23.9514 28.3368 24 28.0556 24 27.75ZM10 5.33333H19.3333L18.3333 2.89583C18.2361 2.77083 18.1181 2.69444 17.9792 2.66667H11.375C11.2361 2.69444 11.1181 2.77083 11.0208 2.89583L10 5.33333ZM29.3333 6V7.33333C29.3333 7.52778 29.2708 7.6875 29.1458 7.8125C29.0208 7.9375 28.8611 8 28.6667 8H26.6667V27.75C26.6667 28.9028 26.3403 29.8993 25.6875 30.7396C25.0347 31.5799 24.25 32 23.3333 32H6C5.08333 32 4.29861 31.5938 3.64583 30.7812C2.99306 29.9688 2.66667 28.9861 2.66667 27.8333V8H0.666667C0.472222 8 0.3125 7.9375 0.1875 7.8125C0.0625 7.6875 0 7.52778 0 7.33333V6C0 5.80556 0.0625 5.64583 0.1875 5.52083C0.3125 5.39583 0.472222 5.33333 0.666667 5.33333H7.10417L8.5625 1.85417C8.77083 1.34028 9.14583 0.902778 9.6875 0.541667C10.2292 0.180556 10.7778 0 11.3333 0H18C18.5556 0 19.1042 0.180556 19.6458 0.541667C20.1875 0.902778 20.5625 1.34028 20.7708 1.85417L22.2292 5.33333H28.6667C28.8611 5.33333 29.0208 5.39583 29.1458 5.52083C29.2708 5.64583 29.3333 5.80556 29.3333 6Z" fill="white"/>
</svg>
