<svg width="35" height="35" viewBox="0 0 35 35" fill="none" xmlns="http://www.w3.org/2000/svg">
<path d="M29.1667 4.2952H26.75C26.5509 3.68739 26.2401 3.12213 25.8333 2.62853C25.3617 2.10126 24.7836 1.68006 24.1372 1.39275C23.4908 1.10545 22.7907 0.958586 22.0833 0.961865H12.95C12.237 0.95384 11.5305 1.09841 10.878 1.38586C10.2255 1.67332 9.64199 2.09702 9.16668 2.62853C8.74809 3.11945 8.4258 3.68488 8.21668 4.2952H5.83334C4.50726 4.2952 3.23549 4.82198 2.29781 5.75966C1.36013 6.69735 0.833344 7.96911 0.833344 9.2952V29.2952C0.833344 30.6213 1.36013 31.893 2.29781 32.8307C3.23549 33.7684 4.50726 34.2952 5.83334 34.2952H29.1667C30.4928 34.2952 31.7645 33.7684 32.7022 32.8307C33.6399 31.893 34.1667 30.6213 34.1667 29.2952V9.2952C34.1667 7.96911 33.6399 6.69735 32.7022 5.75966C31.7645 4.82198 30.4928 4.2952 29.1667 4.2952ZM11.7 4.86186C11.8562 4.68408 12.0484 4.5416 12.264 4.44389C12.4795 4.34619 12.7134 4.2955 12.95 4.2952H22.05C22.2866 4.2955 22.5205 4.34619 22.736 4.44389C22.9516 4.5416 23.1438 4.68408 23.3 4.86186C23.4573 5.03686 23.5757 5.24318 23.6475 5.46725C23.7194 5.69131 23.7429 5.92804 23.7167 6.16186L22.8833 12.8285C22.8342 13.235 22.6372 13.6093 22.3298 13.8798C22.0224 14.1503 21.6261 14.2982 21.2167 14.2952H18.4833L20.3833 10.2952C20.5374 9.90294 20.5371 9.46689 20.3826 9.07481C20.2281 8.68274 19.9308 8.36376 19.5505 8.18209C19.1703 8.00041 18.7353 7.96953 18.3332 8.09566C17.9311 8.22178 17.5917 8.49556 17.3833 8.86186L14.7833 14.2952H13.7833C13.3739 14.2982 12.9777 14.1503 12.6703 13.8798C12.3629 13.6093 12.1658 13.235 12.1167 12.8285L11.2833 6.16186C11.2571 5.92804 11.2807 5.69131 11.3525 5.46725C11.4243 5.24318 11.5427 5.03686 11.7 4.86186ZM30.8333 29.2952C30.8333 29.7372 30.6577 30.1611 30.3452 30.4737C30.0326 30.7863 29.6087 30.9619 29.1667 30.9619H5.83334C5.39132 30.9619 4.96739 30.7863 4.65483 30.4737C4.34227 30.1611 4.16668 29.7372 4.16668 29.2952V9.2952C4.16668 8.85317 4.34227 8.42925 4.65483 8.11669C4.96739 7.80413 5.39132 7.62853 5.83334 7.62853H8.11668L8.81668 13.2452C8.96783 14.4617 9.56064 15.5803 10.4825 16.3885C11.4043 17.1966 12.5908 17.6379 13.8167 17.6285H21.25C22.4759 17.6379 23.6624 17.1966 24.5842 16.3885C25.506 15.5803 26.0989 14.4617 26.25 13.2452L26.8833 7.62853H29.1667C29.6087 7.62853 30.0326 7.80413 30.3452 8.11669C30.6577 8.42925 30.8333 8.85317 30.8333 9.2952V29.2952ZM20.8333 24.2952H14.1667C13.7246 24.2952 13.3007 24.4708 12.9882 24.7833C12.6756 25.0959 12.5 25.5198 12.5 25.9619C12.5 26.4039 12.6756 26.8278 12.9882 27.1404C13.3007 27.4529 13.7246 27.6285 14.1667 27.6285H20.8333C21.2754 27.6285 21.6993 27.4529 22.0119 27.1404C22.3244 26.8278 22.5 26.4039 22.5 25.9619C22.5 25.5198 22.3244 25.0959 22.0119 24.7833C21.6993 24.4708 21.2754 24.2952 20.8333 24.2952Z" fill="#10375C"/>
</svg>
